<?xml version="1.0" encoding="iso-8859-1"?>
<!-- Generator: Adobe Illustrator 19.0.1, SVG Export Plug-In . SVG Version: 6.00 Build 0)  -->
<svg version="1.1" xmlns="http://www.w3.org/2000/svg" xmlns:xlink="http://www.w3.org/1999/xlink" x="0px" y="0px"
	 viewBox="0 0 128 128" style="enable-background:new 0 0 128 128;" xml:space="preserve">
<g id="_x38_">
	<path id="icon_15_" style="fill:#191919;" d="M122.784,39.995H81.761c7.324,5.458,12.025,14.191,12.025,24.015
		c0,7.095-2.465,13.627-6.585,18.751L61.32,127.974c41.463,1.074,58.295-31.41,58.295-31.41
		C133.805,69.591,126.182,47.39,122.784,39.995z M64.701,0.011C33.572,1.244,18.167,19.713,13.818,25.998l20.159,34.931
		c1.549-15.124,14.314-26.92,29.843-26.92c2.201,0,4.349,0.246,6.409,0.704h50.812C101.198-1.626,64.701,0.011,64.701,0.011z
		 M63.82,93.994c-13.557,0-25.036-8.997-28.734-21.356L10.068,30.083c-21.339,35.213-1.761,65.865-1.761,65.865
		c16.303,25.828,39.403,30.283,47.484,31.04l20.67-35.794C72.623,92.99,68.327,93.994,63.82,93.994z M75.528,41.052
		c-0.775-0.387-1.567-0.757-2.394-1.056c-0.264-0.123-0.546-0.211-0.828-0.317c-0.475-0.158-0.951-0.317-1.444-0.458
		c-0.123-0.035-0.264-0.07-0.387-0.106c-0.986-0.264-2.007-0.475-3.046-0.616c-1.18-0.159-2.394-0.247-3.609-0.247
		c-14.226,0-25.758,11.532-25.758,25.758c0,0.317,0,0.634,0.018,0.951c0.018,0.458,0.035,0.933,0.088,1.391
		c0.07,0.88,0.194,1.743,0.37,2.588c0.106,0.634,0.264,1.268,0.44,1.884c0,0.07,0.035,0.141,0.053,0.194
		c0.053,0.176,0.106,0.352,0.158,0.528c3.222,10.564,13.029,18.223,24.631,18.223c5.493,0,10.581-1.725,14.772-4.666
		c0.687-0.475,1.338-0.968,1.954-1.514c0.493-0.423,0.968-0.88,1.426-1.338c0.194-0.176,0.37-0.37,0.546-0.546
		c0.158-0.158,0.299-0.317,0.44-0.475c0.423-0.475,0.845-0.968,1.232-1.479c3.363-4.366,5.37-9.807,5.37-15.74
		C89.561,53.992,83.856,45.33,75.528,41.052z"/>
</g>
<g id="Layer_1">
</g>
</svg>
